<svg width="41" height="41" viewBox="0 0 41 41" fill="none" xmlns="http://www.w3.org/2000/svg">
<circle cx="20.5" cy="20.5" r="20" fill="white" stroke="black"/>
<path d="M18.1523 25.4766C18.1523 23.918 18.3457 22.6758 18.7324 21.75C19.1191 20.8242 19.8809 19.8105 21.0176 18.709C22.166 17.5957 22.8926 16.8047 23.1973 16.3359C23.666 15.6211 23.9004 14.8477 23.9004 14.0156C23.9004 12.9141 23.625 12.0762 23.0742 11.502C22.5352 10.916 21.7383 10.623 20.6836 10.623C19.6758 10.623 18.8613 10.9102 18.2402 11.4844C17.6309 12.0469 17.3262 12.8145 17.3262 13.7871H13.0547C13.0781 11.7129 13.7812 10.0723 15.1641 8.86523C16.5586 7.6582 18.3984 7.05469 20.6836 7.05469C23.0391 7.05469 24.873 7.65234 26.1855 8.84766C27.5098 10.043 28.1719 11.7129 28.1719 13.8574C28.1719 15.7676 27.2812 17.6484 25.5 19.5L23.3379 21.627C22.5645 22.5059 22.166 23.7891 22.1426 25.4766H18.1523ZM17.8535 30.9434C17.8535 30.252 18.0703 29.6953 18.5039 29.2734C18.9375 28.8398 19.5234 28.623 20.2617 28.623C21.0117 28.623 21.6035 28.8457 22.0371 29.291C22.4707 29.7246 22.6875 30.2754 22.6875 30.9434C22.6875 31.5879 22.4766 32.127 22.0547 32.5605C21.6328 32.9941 21.0352 33.2109 20.2617 33.2109C19.4883 33.2109 18.8906 32.9941 18.4688 32.5605C18.0586 32.127 17.8535 31.5879 17.8535 30.9434Z" fill="#FFD166"/>
<path d="M18.1523 25.4766H15.1523V28.4766H18.1523V25.4766ZM21.0176 18.709L23.1053 20.8634L23.1057 20.863L21.0176 18.709ZM23.1973 16.3359L20.6885 14.6909L20.6819 14.701L23.1973 16.3359ZM23.0742 11.502L20.8664 13.5331L20.8876 13.5561L20.9092 13.5786L23.0742 11.502ZM18.2402 11.4844L20.2751 13.6888L20.2768 13.6872L18.2402 11.4844ZM17.3262 13.7871V16.7871H20.3262V13.7871H17.3262ZM13.0547 13.7871L10.0549 13.7532L10.0206 16.7871H13.0547V13.7871ZM15.1641 8.86523L13.2007 6.59689L13.1913 6.60513L15.1641 8.86523ZM26.1855 8.84766L24.1655 11.0657L24.1754 11.0746L26.1855 8.84766ZM25.5 19.5L27.6039 21.6386L27.6333 21.6097L27.662 21.5799L25.5 19.5ZM23.3379 21.627L21.234 19.4883L21.1571 19.564L21.0858 19.6451L23.3379 21.627ZM22.1426 25.4766V28.4766H25.1012L25.1423 25.5182L22.1426 25.4766ZM18.5039 29.2734L20.596 31.4236L20.6107 31.4093L20.6252 31.3948L18.5039 29.2734ZM22.0371 29.291L19.8877 31.3839L19.9016 31.3982L19.9158 31.4123L22.0371 29.291ZM18.4688 32.5605L16.2893 34.6221L16.3039 34.6375L16.3186 34.6526L18.4688 32.5605ZM21.1523 25.4766C21.1523 24.1187 21.3278 23.3201 21.5006 22.9063L15.9642 20.5937C15.3636 22.0315 15.1523 23.7173 15.1523 25.4766H21.1523ZM21.5006 22.9063C21.6662 22.5099 22.1107 21.8272 23.1053 20.8634L18.9298 16.5546C17.651 17.7939 16.5721 19.1385 15.9642 20.5937L21.5006 22.9063ZM23.1057 20.863C24.2209 19.7819 25.195 18.7672 25.7126 17.9709L20.6819 14.701C20.6857 14.6952 20.656 14.7405 20.5683 14.8476C20.4847 14.9497 20.3689 15.0832 20.2144 15.2514C19.9043 15.589 19.48 16.0212 18.9295 16.555L23.1057 20.863ZM25.706 17.981C26.486 16.7916 26.9004 15.4489 26.9004 14.0156H20.9004C20.9004 14.2464 20.8461 14.4506 20.6885 14.6909L25.706 17.981ZM26.9004 14.0156C26.9004 12.4414 26.5033 10.7432 25.2393 9.42528L20.9092 13.5786C20.8415 13.5081 20.8309 13.4585 20.8438 13.4978C20.861 13.55 20.9004 13.7073 20.9004 14.0156H26.9004ZM25.282 9.47078C24.0066 8.08444 22.2915 7.62305 20.6836 7.62305V13.623C20.94 13.623 21.0395 13.6594 21.0371 13.6585C21.0338 13.6573 21.0092 13.6477 20.9727 13.6237C20.9356 13.5992 20.8985 13.568 20.8664 13.5331L25.282 9.47078ZM20.6836 7.62305C19.074 7.62305 17.4822 8.0995 16.2037 9.28156L20.2768 13.6872C20.2809 13.6834 20.2842 13.6783 20.3143 13.6677C20.3526 13.6542 20.4638 13.623 20.6836 13.623V7.62305ZM16.2054 9.27996C14.8735 10.5094 14.3262 12.1352 14.3262 13.7871H20.3262C20.3262 13.6136 20.353 13.5636 20.343 13.5888C20.3383 13.6006 20.3286 13.6208 20.3128 13.6438C20.297 13.6668 20.2824 13.682 20.2751 13.6888L16.2054 9.27996ZM17.3262 10.7871H13.0547V16.7871H17.3262V10.7871ZM16.0545 13.821C16.0697 12.4778 16.4853 11.6941 17.1369 11.1253L13.1913 6.60513C11.0772 8.45048 10.0866 10.948 10.0549 13.7532L16.0545 13.821ZM17.1274 11.1336C17.8552 10.5036 18.9408 10.0547 20.6836 10.0547V4.05469C17.8561 4.05469 15.2619 4.81283 13.2007 6.59691L17.1274 11.1336ZM20.6836 10.0547C22.5411 10.0547 23.5656 10.5193 24.1656 11.0657L28.2055 6.62963C26.1805 4.78538 23.537 4.05469 20.6836 4.05469V10.0547ZM24.1754 11.0746C24.743 11.587 25.1719 12.3752 25.1719 13.8574H31.1719C31.1719 11.0506 30.2765 8.49895 28.1957 6.62072L24.1754 11.0746ZM25.1719 13.8574C25.1719 14.7556 24.7715 15.93 23.338 17.4201L27.662 21.5799C29.791 19.3669 31.1719 16.7796 31.1719 13.8574H25.1719ZM23.3961 17.3614L21.234 19.4883L25.4418 23.7656L27.6039 21.6386L23.3961 17.3614ZM21.0858 19.6451C19.669 21.255 19.1719 23.3421 19.1429 25.4349L25.1423 25.5182C25.1601 24.236 25.4599 23.7567 25.59 23.6088L21.0858 19.6451ZM22.1426 22.4766H18.1523V28.4766H22.1426V22.4766ZM20.8535 30.9434C20.8535 30.9123 20.8579 30.9772 20.8116 31.0961C20.7621 31.223 20.6829 31.3391 20.596 31.4236L16.4118 27.1233C15.3131 28.1923 14.8535 29.5683 14.8535 30.9434H20.8535ZM20.6252 31.3948C20.5302 31.4898 20.4145 31.5604 20.3096 31.5992C20.2149 31.6343 20.1848 31.623 20.2617 31.623V25.623C18.9013 25.623 17.4906 26.0441 16.3826 27.1521L20.6252 31.3948ZM20.2617 31.623C20.3415 31.623 20.3099 31.6348 20.2117 31.5979C20.1025 31.5568 19.9837 31.4825 19.8877 31.3839L24.1865 27.1982C23.0742 26.0557 21.6417 25.623 20.2617 25.623V31.623ZM19.9158 31.4123C19.8521 31.3486 19.7813 31.2498 19.7334 31.1281C19.6875 31.0114 19.6875 30.9374 19.6875 30.9434H25.6875C25.6875 29.558 25.2077 28.2189 24.1584 27.1697L19.9158 31.4123ZM19.6875 30.9434C19.6875 30.9339 19.6901 30.854 19.7356 30.7379C19.7824 30.6181 19.8493 30.5252 19.9045 30.4685L24.2049 34.6526C25.2098 33.6198 25.6875 32.3129 25.6875 30.9434H19.6875ZM19.9045 30.4685C20.0256 30.344 20.1622 30.2662 20.267 30.2282C20.3585 30.195 20.3727 30.2109 20.2617 30.2109V36.2109C21.6076 36.2109 23.0717 35.8173 24.2049 34.6526L19.9045 30.4685ZM20.2617 30.2109C20.1507 30.2109 20.1649 30.195 20.2564 30.2282C20.3612 30.2662 20.4978 30.344 20.6189 30.4685L16.3186 34.6526C17.4518 35.8173 18.9158 36.2109 20.2617 36.2109V30.2109ZM20.6482 30.4989C20.7051 30.5592 20.7683 30.6514 20.8113 30.7643C20.8527 30.8732 20.8535 30.9437 20.8535 30.9434H14.8535C14.8535 32.2876 15.3079 33.5846 16.2893 34.6221L20.6482 30.4989Z" fill="url(#paint0_linear_946:3330)"/>
<defs>
<linearGradient id="paint0_linear_946:3330" x1="21" y1="3" x2="21" y2="39" gradientUnits="userSpaceOnUse">
<stop stop-color="#118AB2"/>
<stop offset="0.473958" stop-color="#06D6A0" stop-opacity="0.432292"/>
<stop offset="1" stop-color="#EF476F"/>
</linearGradient>
</defs>
</svg>
