<svg width="66" height="84" viewBox="0 0 66 84" fill="none" xmlns="http://www.w3.org/2000/svg">
<path d="M45.1406 59.1094H18.7031L13.1719 75H0.84375L26.625 6.75H37.2656L63.0938 75H50.7188L45.1406 59.1094ZM22.0312 49.5469H41.8125L31.9219 21.2344L22.0312 49.5469Z" fill="#FFD166"/>
<path d="M45.1406 59.1094L47.9713 58.1157L47.267 56.1094H45.1406V59.1094ZM18.7031 59.1094V56.1094H16.5708L15.8699 58.1232L18.7031 59.1094ZM13.1719 75V78H15.3042L16.0051 75.9862L13.1719 75ZM0.84375 75L-1.96269 73.9399L-3.4964 78H0.84375V75ZM26.625 6.75V3.75H24.5513L23.8186 5.68987L26.625 6.75ZM37.2656 6.75L40.0714 5.68819L39.338 3.75H37.2656V6.75ZM63.0938 75V78H67.4367L65.8996 73.9382L63.0938 75ZM50.7188 75L47.8881 75.9937L48.5924 78H50.7188V75ZM22.0312 49.5469L19.1991 48.5575L17.8054 52.5469H22.0312V49.5469ZM41.8125 49.5469V52.5469H46.0383L44.6447 48.5575L41.8125 49.5469ZM31.9219 21.2344L34.754 20.245L31.9219 12.1378L29.0897 20.245L31.9219 21.2344ZM45.1406 56.1094H18.7031V62.1094H45.1406V56.1094ZM15.8699 58.1232L10.3386 74.0138L16.0051 75.9862L21.5364 60.0956L15.8699 58.1232ZM13.1719 72H0.84375V78H13.1719V72ZM3.65019 76.0601L29.4314 7.81013L23.8186 5.68987L-1.96269 73.9399L3.65019 76.0601ZM26.625 9.75H37.2656V3.75H26.625V9.75ZM34.4598 7.81181L60.2879 76.0618L65.8996 73.9382L40.0714 5.68819L34.4598 7.81181ZM63.0938 72H50.7188V78H63.0938V72ZM53.5494 74.0063L47.9713 58.1157L42.31 60.103L47.8881 75.9937L53.5494 74.0063ZM22.0312 52.5469H41.8125V46.5469H22.0312V52.5469ZM44.6447 48.5575L34.754 20.245L29.0897 22.2238L38.9803 50.5363L44.6447 48.5575ZM29.0897 20.245L19.1991 48.5575L24.8634 50.5363L34.754 22.2238L29.0897 20.245Z" fill="url(#paint0_linear_949:3329)"/>
<defs>
<linearGradient id="paint0_linear_949:3329" x1="33" y1="0" x2="33" y2="84" gradientUnits="userSpaceOnUse">
<stop stop-color="#06D6A0"/>
<stop offset="1" stop-color="#EF476F"/>
</linearGradient>
</defs>
</svg>
