<svg width="50" height="69" viewBox="0 0 50 69" fill="none" xmlns="http://www.w3.org/2000/svg">
<path d="M0.9375 69V0.75H24.3281C32.0469 0.75 37.9219 2.29688 41.9531 5.39062C45.9844 8.48438 48 13.0937 48 19.2188C48 22.3438 47.1562 25.1562 45.4688 27.6562C43.7812 30.1562 41.3125 32.0938 38.0625 33.4688C41.75 34.4688 44.5938 36.3594 46.5938 39.1406C48.625 41.8906 49.6406 45.2031 49.6406 49.0781C49.6406 55.4844 47.5781 60.4062 43.4531 63.8438C39.3594 67.2812 33.4844 69 25.8281 69H0.9375ZM12.7969 38.2031V59.5312H25.9688C29.6875 59.5312 32.5938 58.6094 34.6875 56.7656C36.7812 54.9219 37.8281 52.3594 37.8281 49.0781C37.8281 41.9844 34.2031 38.3594 26.9531 38.2031H12.7969ZM12.7969 29.4844H24.4219C28.1094 29.4844 30.9844 28.6562 33.0469 27C35.1406 25.3125 36.1875 22.9375 36.1875 19.875C36.1875 16.5 35.2188 14.0625 33.2812 12.5625C31.375 11.0625 28.3906 10.3125 24.3281 10.3125H12.7969V29.4844Z" fill="#FFD166"/>
<path d="M0.9375 69H-2.0625V72H0.9375V69ZM0.9375 0.75V-2.25H-2.0625V0.75H0.9375ZM38.0625 33.4688L36.8936 30.7058L28.8934 34.0906L37.2773 36.3642L38.0625 33.4688ZM46.5938 39.1406L44.1581 40.8921L44.1693 40.9076L44.1807 40.923L46.5938 39.1406ZM43.4531 63.8438L41.5326 61.5391L41.524 61.5463L43.4531 63.8438ZM12.7969 38.2031V35.2031H9.79688V38.2031H12.7969ZM12.7969 59.5312H9.79688V62.5312H12.7969V59.5312ZM26.9531 38.2031L27.0178 35.2038L26.9854 35.2031H26.9531V38.2031ZM12.7969 29.4844H9.79688V32.4844H12.7969V29.4844ZM33.0469 27L34.9253 29.3391L34.9295 29.3358L33.0469 27ZM33.2812 12.5625L31.4261 14.9201L31.4354 14.9274L31.4447 14.9347L33.2812 12.5625ZM12.7969 10.3125V7.3125H9.79688V10.3125H12.7969ZM3.9375 69V0.75H-2.0625V69H3.9375ZM0.9375 3.75H24.3281V-2.25H0.9375V3.75ZM24.3281 3.75C31.7115 3.75 36.8291 5.2399 40.1267 7.77055L43.7796 3.0107C39.0146 -0.646145 32.3823 -2.25 24.3281 -2.25V3.75ZM40.1267 7.77055C43.2634 10.1778 45 13.8123 45 19.2188H51C51 12.3752 48.7054 6.79096 43.7796 3.0107L40.1267 7.77055ZM45 19.2188C45 21.7685 44.3225 23.9922 42.9822 25.9778L47.9553 29.3347C49.99 26.3203 51 22.919 51 19.2188H45ZM42.9822 25.9778C41.6718 27.9192 39.7014 29.5179 36.8936 30.7058L39.2314 36.2317C42.9236 34.6696 45.8907 32.3933 47.9553 29.3347L42.9822 25.9778ZM37.2773 36.3642C40.381 37.2059 42.6072 38.7353 44.1581 40.8921L49.0294 37.3892C46.5803 33.9834 43.119 31.7316 38.8477 30.5733L37.2773 36.3642ZM44.1807 40.923C45.7808 43.0894 46.6406 45.7553 46.6406 49.0781H52.6406C52.6406 44.6509 51.4692 40.6919 49.0068 37.3582L44.1807 40.923ZM46.6406 49.0781C46.6406 54.784 44.8399 58.7829 41.5326 61.5391L45.3737 66.1484C50.3163 62.0296 52.6406 56.1847 52.6406 49.0781H46.6406ZM41.524 61.5463C38.1625 64.3689 33.078 66 25.8281 66V72C33.8907 72 40.5563 70.1936 45.3823 66.1412L41.524 61.5463ZM25.8281 66H0.9375V72H25.8281V66ZM9.79688 38.2031V59.5312H15.7969V38.2031H9.79688ZM12.7969 62.5312H25.9688V56.5312H12.7969V62.5312ZM25.9688 62.5312C30.171 62.5312 33.8682 61.4844 36.6701 59.0171L32.7049 54.5142C31.3193 55.7343 29.204 56.5312 25.9688 56.5312V62.5312ZM36.6701 59.0171C39.5262 56.5021 40.8281 53.0542 40.8281 49.0781H34.8281C34.8281 51.6645 34.0363 53.3417 32.7049 54.5142L36.6701 59.0171ZM40.8281 49.0781C40.8281 45.0468 39.7931 41.4802 37.2307 38.9177C34.6797 36.3667 31.094 35.2917 27.0178 35.2038L26.8885 41.2024C30.0623 41.2708 31.914 42.0864 32.9881 43.1604C34.0506 44.223 34.8281 46.0157 34.8281 49.0781H40.8281ZM26.9531 35.2031H12.7969V41.2031H26.9531V35.2031ZM12.7969 32.4844H24.4219V26.4844H12.7969V32.4844ZM24.4219 32.4844C28.5272 32.4844 32.1547 31.564 34.9253 29.3391L31.1685 24.6609C29.814 25.7485 27.6915 26.4844 24.4219 26.4844V32.4844ZM34.9295 29.3358C37.8335 26.9952 39.1875 23.7029 39.1875 19.875H33.1875C33.1875 22.1721 32.4478 23.6298 31.1643 24.6642L34.9295 29.3358ZM39.1875 19.875C39.1875 15.9451 38.0409 12.4534 35.1178 10.1903L31.4447 14.9347C32.3966 15.6716 33.1875 17.0549 33.1875 19.875H39.1875ZM35.1364 10.2049C32.4483 8.08963 28.6488 7.3125 24.3281 7.3125V13.3125C28.1325 13.3125 30.3017 14.0354 31.4261 14.9201L35.1364 10.2049ZM24.3281 7.3125H12.7969V13.3125H24.3281V7.3125ZM9.79688 10.3125V29.4844H15.7969V10.3125H9.79688Z" fill="url(#paint0_linear_950:3334)"/>
<defs>
<linearGradient id="paint0_linear_950:3334" x1="27" y1="-6" x2="27" y2="78" gradientUnits="userSpaceOnUse">
<stop stop-color="#06D6A0"/>
<stop offset="1" stop-color="#EF476F"/>
</linearGradient>
</defs>
</svg>
