<svg width="20" height="20" viewBox="0 0 20 20" fill="none" xmlns="http://www.w3.org/2000/svg">
<g clip-path="url(#clip0_946:3306)">
<path d="M16.6667 7.49982H9.16667C8.24619 7.49982 7.5 8.24601 7.5 9.16648V16.6665C7.5 17.587 8.24619 18.3332 9.16667 18.3332H16.6667C17.5871 18.3332 18.3333 17.587 18.3333 16.6665V9.16648C18.3333 8.24601 17.5871 7.49982 16.6667 7.49982Z" stroke="#F8F8F8" stroke-width="1.5" stroke-linecap="round" stroke-linejoin="round"/>
<path d="M4.1665 12.4998H3.33317C2.89114 12.4998 2.46722 12.3242 2.15466 12.0117C1.8421 11.6991 1.6665 11.2752 1.6665 10.8332V3.33315C1.6665 2.89112 1.8421 2.4672 2.15466 2.15464C2.46722 1.84208 2.89114 1.66648 3.33317 1.66648H10.8332C11.2752 1.66648 11.6991 1.84208 12.0117 2.15464C12.3242 2.4672 12.4998 2.89112 12.4998 3.33315V4.16648" stroke="#F8F8F8" stroke-width="1.5" stroke-linecap="round" stroke-linejoin="round"/>
</g>
<defs>
<clipPath id="clip0_946:3306">
<rect width="20" height="20" fill="white" transform="translate(0 -0.000183105)"/>
</clipPath>
</defs>
</svg>
