<svg width="52" height="116" viewBox="0 0 52 116" fill="none" xmlns="http://www.w3.org/2000/svg">
<path d="M26 115.512C40.0902 115.512 51.5126 104.09 51.5126 90C51.5126 75.9098 40.0902 64.4875 26 64.4875C11.9099 64.4875 0.487549 75.9098 0.487549 90C0.487549 104.09 11.9099 115.512 26 115.512Z" fill="#EF476F"/>
<path fill-rule="evenodd" clip-rule="evenodd" d="M32.3273 79.5994L36.4005 83.6727L19.7199 100.353L15.6465 96.2806L32.3273 79.5994Z" fill="white"/>
<path fill-rule="evenodd" clip-rule="evenodd" d="M36.3791 96.3223L32.3008 100.401L15.5994 83.6991L19.6776 79.6208L36.3791 96.3223Z" fill="white"/>
<path d="M26 50C39.8071 50 51 38.8071 51 25C51 11.1929 39.8071 0 26 0C12.1929 0 1 11.1929 1 25C1 38.8071 12.1929 50 26 50Z" fill="#06D6A0"/>
<path d="M39 15L23 33L13 25" stroke="white" stroke-width="4" stroke-miterlimit="10" stroke-linecap="round" stroke-linejoin="round"/>
</svg>
