<svg width="484" height="162" viewBox="0 0 484 162" fill="none" xmlns="http://www.w3.org/2000/svg">
<path d="M458 153.512C472.09 153.512 483.512 142.09 483.512 128C483.512 113.91 472.09 102.487 458 102.487C443.91 102.487 432.487 113.91 432.487 128C432.487 142.09 443.91 153.512 458 153.512Z" fill="#EF476F"/>
<path fill-rule="evenodd" clip-rule="evenodd" d="M464.327 117.599L468.401 121.673L451.72 138.353L447.647 134.281L464.327 117.599Z" fill="white"/>
<path fill-rule="evenodd" clip-rule="evenodd" d="M468.379 134.322L464.301 138.401L447.599 121.699L451.678 117.621L468.379 134.322Z" fill="white"/>
<path d="M432 67C445.807 67 457 55.8071 457 42C457 28.1929 445.807 17 432 17C418.193 17 407 28.1929 407 42C407 55.8071 418.193 67 432 67Z" fill="#06D6A0"/>
<path d="M445 32L429 50L419 42" stroke="white" stroke-width="4" stroke-miterlimit="10" stroke-linecap="round" stroke-linejoin="round"/>
<path d="M71.8164 67H36.7305V60.0391L53.2891 42.3906C55.5625 39.9062 57.2383 37.7383 58.3164 35.8867C59.418 34.0352 59.9688 32.2773 59.9688 30.6133C59.9688 28.3398 59.3945 26.5586 58.2461 25.2695C57.0977 23.957 55.457 23.3008 53.3242 23.3008C51.0273 23.3008 49.2109 24.0977 47.875 25.6914C46.5625 27.2617 45.9062 29.3359 45.9062 31.9141H35.7109C35.7109 28.7969 36.4492 25.9492 37.9258 23.3711C39.4258 20.793 41.5352 18.7773 44.2539 17.3242C46.9727 15.8477 50.0547 15.1094 53.5 15.1094C58.7734 15.1094 62.8633 16.375 65.7695 18.9062C68.6992 21.4375 70.1641 25.0117 70.1641 29.6289C70.1641 32.1602 69.5078 34.7383 68.1953 37.3633C66.8828 39.9883 64.6328 43.0469 61.4453 46.5391L49.8086 58.8086H71.8164V67ZM110.664 54.5898L117.73 28.9609H128.348L115.516 67H105.812L92.9805 28.9609H103.598L110.664 54.5898ZM149.863 67.7031C144.285 67.7031 139.738 65.9922 136.223 62.5703C132.73 59.1484 130.984 54.5898 130.984 48.8945V47.9102C130.984 44.0898 131.723 40.6797 133.199 37.6797C134.676 34.6562 136.762 32.3359 139.457 30.7188C142.176 29.0781 145.27 28.2578 148.738 28.2578C153.941 28.2578 158.031 29.8984 161.008 33.1797C164.008 36.4609 165.508 41.1133 165.508 47.1367V51.2852H141.285C141.613 53.7695 142.598 55.7617 144.238 57.2617C145.902 58.7617 148 59.5117 150.531 59.5117C154.445 59.5117 157.504 58.0938 159.707 55.2578L164.699 60.8477C163.176 63.0039 161.113 64.6914 158.512 65.9102C155.91 67.1055 153.027 67.7031 149.863 67.7031ZM148.703 36.4844C146.688 36.4844 145.047 37.1641 143.781 38.5234C142.539 39.8828 141.742 41.8281 141.391 44.3594H155.523V43.5508C155.477 41.3008 154.867 39.5664 153.695 38.3477C152.523 37.1055 150.859 36.4844 148.703 36.4844ZM192.684 38.4883C191.301 38.3008 190.082 38.207 189.027 38.207C185.184 38.207 182.664 39.5078 181.469 42.1094V67H171.309V28.9609H180.906L181.188 33.4961C183.227 30.0039 186.051 28.2578 189.66 28.2578C190.785 28.2578 191.84 28.4102 192.824 28.7148L192.684 38.4883ZM195.32 47.6992C195.32 41.7695 196.645 37.0469 199.293 33.5312C201.965 30.0156 205.609 28.2578 210.227 28.2578C213.93 28.2578 216.988 29.6406 219.402 32.4062V13H229.598V67H220.422L219.93 62.957C217.398 66.1211 214.141 67.7031 210.156 67.7031C205.68 67.7031 202.082 65.9453 199.363 62.4297C196.668 58.8906 195.32 53.9805 195.32 47.6992ZM205.48 48.4375C205.48 52 206.102 54.7305 207.344 56.6289C208.586 58.5273 210.391 59.4766 212.758 59.4766C215.898 59.4766 218.113 58.1523 219.402 55.5039V40.4922C218.137 37.8438 215.945 36.5195 212.828 36.5195C207.93 36.5195 205.48 40.4922 205.48 48.4375ZM259.516 67C259.047 66.0859 258.707 64.9492 258.496 63.5898C256.035 66.332 252.836 67.7031 248.898 67.7031C245.172 67.7031 242.078 66.625 239.617 64.4688C237.18 62.3125 235.961 59.5938 235.961 56.3125C235.961 52.2812 237.449 49.1875 240.426 47.0312C243.426 44.875 247.75 43.7852 253.398 43.7617H258.074V41.582C258.074 39.8242 257.617 38.418 256.703 37.3633C255.812 36.3086 254.395 35.7812 252.449 35.7812C250.738 35.7812 249.391 36.1914 248.406 37.0117C247.445 37.832 246.965 38.957 246.965 40.3867H236.805C236.805 38.1836 237.484 36.1445 238.844 34.2695C240.203 32.3945 242.125 30.9297 244.609 29.875C247.094 28.7969 249.883 28.2578 252.977 28.2578C257.664 28.2578 261.379 29.4414 264.121 31.8086C266.887 34.1523 268.27 37.457 268.27 41.7227V58.2109C268.293 61.8203 268.797 64.5508 269.781 66.4023V67H259.516ZM251.113 59.9336C252.613 59.9336 253.996 59.6055 255.262 58.9492C256.527 58.2695 257.465 57.3672 258.074 56.2422V49.7031H254.277C249.191 49.7031 246.484 51.4609 246.156 54.9766L246.121 55.5742C246.121 56.8398 246.566 57.8828 247.457 58.7031C248.348 59.5234 249.566 59.9336 251.113 59.9336ZM274.492 47.6992C274.492 41.7695 275.816 37.0469 278.465 33.5312C281.137 30.0156 284.781 28.2578 289.398 28.2578C293.102 28.2578 296.16 29.6406 298.574 32.4062V13H308.77V67H299.594L299.102 62.957C296.57 66.1211 293.312 67.7031 289.328 67.7031C284.852 67.7031 281.254 65.9453 278.535 62.4297C275.84 58.8906 274.492 53.9805 274.492 47.6992ZM284.652 48.4375C284.652 52 285.273 54.7305 286.516 56.6289C287.758 58.5273 289.562 59.4766 291.93 59.4766C295.07 59.4766 297.285 58.1523 298.574 55.5039V40.4922C297.309 37.8438 295.117 36.5195 292 36.5195C287.102 36.5195 284.652 40.4922 284.652 48.4375ZM334.152 67.7031C328.574 67.7031 324.027 65.9922 320.512 62.5703C317.02 59.1484 315.273 54.5898 315.273 48.8945V47.9102C315.273 44.0898 316.012 40.6797 317.488 37.6797C318.965 34.6562 321.051 32.3359 323.746 30.7188C326.465 29.0781 329.559 28.2578 333.027 28.2578C338.23 28.2578 342.32 29.8984 345.297 33.1797C348.297 36.4609 349.797 41.1133 349.797 47.1367V51.2852H325.574C325.902 53.7695 326.887 55.7617 328.527 57.2617C330.191 58.7617 332.289 59.5117 334.82 59.5117C338.734 59.5117 341.793 58.0938 343.996 55.2578L348.988 60.8477C347.465 63.0039 345.402 64.6914 342.801 65.9102C340.199 67.1055 337.316 67.7031 334.152 67.7031ZM332.992 36.4844C330.977 36.4844 329.336 37.1641 328.07 38.5234C326.828 39.8828 326.031 41.8281 325.68 44.3594H339.812V43.5508C339.766 41.3008 339.156 39.5664 337.984 38.3477C336.812 37.1055 335.148 36.4844 332.992 36.4844ZM376.199 56.4883C376.199 55.2461 375.578 54.2734 374.336 53.5703C373.117 52.8438 371.148 52.1992 368.43 51.6367C359.383 49.7383 354.859 45.8945 354.859 40.1055C354.859 36.7305 356.254 33.918 359.043 31.668C361.855 29.3945 365.523 28.2578 370.047 28.2578C374.875 28.2578 378.73 29.3945 381.613 31.668C384.52 33.9414 385.973 36.8945 385.973 40.5273H375.812C375.812 39.0742 375.344 37.8789 374.406 36.9414C373.469 35.9805 372.004 35.5 370.012 35.5C368.301 35.5 366.977 35.8867 366.039 36.6602C365.102 37.4336 364.633 38.418 364.633 39.6133C364.633 40.7383 365.16 41.6523 366.215 42.3555C367.293 43.0352 369.098 43.6328 371.629 44.1484C374.16 44.6406 376.293 45.2031 378.027 45.8359C383.395 47.8047 386.078 51.2148 386.078 56.0664C386.078 59.5352 384.59 62.3477 381.613 64.5039C378.637 66.6367 374.793 67.7031 370.082 67.7031C366.895 67.7031 364.059 67.1406 361.574 66.0156C359.113 64.8672 357.18 63.3086 355.773 61.3398C354.367 59.3477 353.664 57.2031 353.664 54.9062H363.297C363.391 56.7109 364.059 58.0938 365.301 59.0547C366.543 60.0156 368.207 60.4961 370.293 60.4961C372.238 60.4961 373.703 60.1328 374.688 59.4062C375.695 58.6562 376.199 57.6836 376.199 56.4883ZM138.824 151H128.664V111.836L116.535 115.598V107.336L137.734 99.7422H138.824V151ZM183.367 112.961L183.684 117.215C186.379 113.91 190.023 112.258 194.617 112.258C199.516 112.258 202.879 114.191 204.707 118.059C207.379 114.191 211.188 112.258 216.133 112.258C220.258 112.258 223.328 113.465 225.344 115.879C227.359 118.27 228.367 121.879 228.367 126.707V151H218.172V126.742C218.172 124.586 217.75 123.016 216.906 122.031C216.062 121.023 214.574 120.52 212.441 120.52C209.395 120.52 207.285 121.973 206.113 124.879L206.148 151H195.988V126.777C195.988 124.574 195.555 122.98 194.688 121.996C193.82 121.012 192.344 120.52 190.258 120.52C187.375 120.52 185.289 121.715 184 124.105V151H173.84V112.961H183.367ZM253.715 151.703C248.137 151.703 243.59 149.992 240.074 146.57C236.582 143.148 234.836 138.59 234.836 132.895V131.91C234.836 128.09 235.574 124.68 237.051 121.68C238.527 118.656 240.613 116.336 243.309 114.719C246.027 113.078 249.121 112.258 252.59 112.258C257.793 112.258 261.883 113.898 264.859 117.18C267.859 120.461 269.359 125.113 269.359 131.137V135.285H245.137C245.465 137.77 246.449 139.762 248.09 141.262C249.754 142.762 251.852 143.512 254.383 143.512C258.297 143.512 261.355 142.094 263.559 139.258L268.551 144.848C267.027 147.004 264.965 148.691 262.363 149.91C259.762 151.105 256.879 151.703 253.715 151.703ZM252.555 120.484C250.539 120.484 248.898 121.164 247.633 122.523C246.391 123.883 245.594 125.828 245.242 128.359H259.375V127.551C259.328 125.301 258.719 123.566 257.547 122.348C256.375 121.105 254.711 120.484 252.555 120.484ZM284.512 112.961L284.828 117.355C287.547 113.957 291.191 112.258 295.762 112.258C299.793 112.258 302.793 113.441 304.762 115.809C306.73 118.176 307.738 121.715 307.785 126.426V151H297.625V126.672C297.625 124.516 297.156 122.957 296.219 121.996C295.281 121.012 293.723 120.52 291.543 120.52C288.684 120.52 286.539 121.738 285.109 124.176V151H274.949V112.961H284.512ZM327.684 103.609V112.961H334.188V120.414H327.684V139.398C327.684 140.805 327.953 141.812 328.492 142.422C329.031 143.031 330.062 143.336 331.586 143.336C332.711 143.336 333.707 143.254 334.574 143.09V150.789C332.582 151.398 330.531 151.703 328.422 151.703C321.297 151.703 317.664 148.105 317.523 140.91V120.414H311.969V112.961H317.523V103.609H327.684ZM350.57 151H340.375V112.961H350.57V151ZM339.777 103.117C339.777 101.594 340.281 100.34 341.289 99.3555C342.32 98.3711 343.715 97.8789 345.473 97.8789C347.207 97.8789 348.59 98.3711 349.621 99.3555C350.652 100.34 351.168 101.594 351.168 103.117C351.168 104.664 350.641 105.93 349.586 106.914C348.555 107.898 347.184 108.391 345.473 108.391C343.762 108.391 342.379 107.898 341.324 106.914C340.293 105.93 339.777 104.664 339.777 103.117ZM380.348 122.488C378.965 122.301 377.746 122.207 376.691 122.207C372.848 122.207 370.328 123.508 369.133 126.109V151H358.973V112.961H368.57L368.852 117.496C370.891 114.004 373.715 112.258 377.324 112.258C378.449 112.258 379.504 112.41 380.488 112.715L380.348 122.488ZM406.258 151C405.789 150.086 405.449 148.949 405.238 147.59C402.777 150.332 399.578 151.703 395.641 151.703C391.914 151.703 388.82 150.625 386.359 148.469C383.922 146.312 382.703 143.594 382.703 140.312C382.703 136.281 384.191 133.188 387.168 131.031C390.168 128.875 394.492 127.785 400.141 127.762H404.816V125.582C404.816 123.824 404.359 122.418 403.445 121.363C402.555 120.309 401.137 119.781 399.191 119.781C397.48 119.781 396.133 120.191 395.148 121.012C394.188 121.832 393.707 122.957 393.707 124.387H383.547C383.547 122.184 384.227 120.145 385.586 118.27C386.945 116.395 388.867 114.93 391.352 113.875C393.836 112.797 396.625 112.258 399.719 112.258C404.406 112.258 408.121 113.441 410.863 115.809C413.629 118.152 415.012 121.457 415.012 125.723V142.211C415.035 145.82 415.539 148.551 416.523 150.402V151H406.258ZM397.855 143.934C399.355 143.934 400.738 143.605 402.004 142.949C403.27 142.27 404.207 141.367 404.816 140.242V133.703H401.02C395.934 133.703 393.227 135.461 392.898 138.977L392.863 139.574C392.863 140.84 393.309 141.883 394.199 142.703C395.09 143.523 396.309 143.934 397.855 143.934Z" fill="black"/>
</svg>
