<svg width="42" height="71" viewBox="0 0 42 71" fill="none" xmlns="http://www.w3.org/2000/svg">
<path d="M14.4062 49.9375C14.4062 45.7812 14.9219 42.4688 15.9531 40C16.9844 37.5312 19.0156 34.8281 22.0469 31.8906C25.1094 28.9219 27.0469 26.8125 27.8594 25.5625C29.1094 23.6562 29.7344 21.5937 29.7344 19.375C29.7344 16.4375 29 14.2031 27.5312 12.6719C26.0938 11.1094 23.9688 10.3281 21.1562 10.3281C18.4688 10.3281 16.2969 11.0937 14.6406 12.625C13.0156 14.125 12.2031 16.1719 12.2031 18.7656H0.8125C0.875 13.2344 2.75 8.85938 6.4375 5.64062C10.1562 2.42187 15.0625 0.8125 21.1562 0.8125C27.4375 0.8125 32.3281 2.40625 35.8281 5.59375C39.3594 8.78125 41.125 13.2344 41.125 18.9531C41.125 24.0469 38.75 29.0625 34 34L28.2344 39.6719C26.1719 42.0156 25.1094 45.4375 25.0469 49.9375H14.4062ZM13.6094 64.5156C13.6094 62.6719 14.1875 61.1875 15.3438 60.0625C16.5 58.9062 18.0625 58.3281 20.0312 58.3281C22.0312 58.3281 23.6094 58.9219 24.7656 60.1094C25.9219 61.2656 26.5 62.7344 26.5 64.5156C26.5 66.2344 25.9375 67.6719 24.8125 68.8281C23.6875 69.9844 22.0938 70.5625 20.0312 70.5625C17.9688 70.5625 16.375 69.9844 15.25 68.8281C14.1562 67.6719 13.6094 66.2344 13.6094 64.5156Z" fill="#FFD166" fill-opacity="0.43"/>
<path d="M14.4062 49.9375H11.4062V52.9375H14.4062V49.9375ZM22.0469 31.8906L24.1346 34.045L24.135 34.0447L22.0469 31.8906ZM27.8594 25.5625L25.3506 23.9174L25.344 23.9275L27.8594 25.5625ZM27.5312 12.6719L25.3235 14.703L25.3446 14.726L25.3662 14.7486L27.5312 12.6719ZM14.6406 12.625L16.6755 14.8294L16.6772 14.8278L14.6406 12.625ZM12.2031 18.7656V21.7656H15.2031V18.7656H12.2031ZM0.8125 18.7656L-2.18731 18.7317L-2.22159 21.7656H0.8125V18.7656ZM6.4375 5.64062L4.47414 3.37228L4.4647 3.38052L6.4375 5.64062ZM35.8281 5.59375L33.8081 7.8118L33.818 7.82069L35.8281 5.59375ZM34 34L36.1039 36.1386L36.1333 36.1097L36.162 36.0799L34 34ZM28.2344 39.6719L26.1305 37.5332L26.0536 37.6089L25.9822 37.69L28.2344 39.6719ZM25.0469 49.9375V52.9375H28.0055L28.0466 49.9792L25.0469 49.9375ZM15.3438 60.0625L17.4358 62.2127L17.4505 62.1983L17.4651 62.1838L15.3438 60.0625ZM24.7656 60.1094L22.6162 62.2022L22.6302 62.2166L22.6443 62.2307L24.7656 60.1094ZM15.25 68.8281L13.0706 70.8897L13.0851 70.9051L13.0998 70.9202L15.25 68.8281ZM17.4062 49.9375C17.4062 45.982 17.9039 43.1131 18.7213 41.1563L13.1849 38.8437C11.9398 41.8244 11.4062 45.5805 11.4062 49.9375H17.4062ZM18.7213 41.1563C19.5315 39.2169 21.2455 36.8448 24.1346 34.045L19.9591 29.7363C16.7858 32.8115 14.4373 35.8456 13.1849 38.8437L18.7213 41.1563ZM24.135 34.0447C27.1643 31.1081 29.3493 28.775 30.3747 27.1975L25.344 23.9275C24.7444 24.85 23.0545 26.7356 19.9588 29.7366L24.135 34.0447ZM30.3681 27.2076C31.9293 24.8267 32.7344 22.195 32.7344 19.375H26.7344C26.7344 20.9925 26.2894 22.4858 25.3506 23.9174L30.3681 27.2076ZM32.7344 19.375C32.7344 15.9648 31.8783 12.8701 29.6963 10.5952L25.3662 14.7486C26.1217 15.5361 26.7344 16.9102 26.7344 19.375H32.7344ZM29.739 10.6407C27.5652 8.2778 24.5219 7.32812 21.1562 7.32812V13.3281C23.4156 13.3281 24.6223 13.9409 25.3235 14.703L29.739 10.6407ZM21.1562 7.32812C17.867 7.32812 14.9178 8.2831 12.6041 10.4222L16.6772 14.8278C17.676 13.9044 19.0705 13.3281 21.1562 13.3281V7.32812ZM12.6058 10.4206C10.2583 12.5875 9.20312 15.4926 9.20312 18.7656H15.2031C15.2031 16.8511 15.773 15.6625 16.6755 14.8294L12.6058 10.4206ZM12.2031 15.7656H0.8125V21.7656H12.2031V15.7656ZM3.81231 18.7995C3.86655 13.9993 5.45408 10.4812 8.4103 7.90073L4.4647 3.38052C0.0459246 7.23759 -2.11655 12.4695 -2.18731 18.7317L3.81231 18.7995ZM8.40084 7.90895C11.4529 5.26725 15.6049 3.8125 21.1562 3.8125V-2.1875C14.5201 -2.1875 8.8596 -0.423501 4.47416 3.3723L8.40084 7.90895ZM21.1562 3.8125C26.9395 3.8125 31.0207 5.27321 33.8081 7.81178L37.8481 3.37572C33.6356 -0.460713 27.9355 -2.1875 21.1562 -2.1875V3.8125ZM33.818 7.82069C36.5927 10.3253 38.125 13.8967 38.125 18.9531H44.125C44.125 12.5721 42.1261 7.23723 37.8383 3.36681L33.818 7.82069ZM38.125 18.9531C38.125 23.0349 36.2403 27.3441 31.838 31.9201L36.162 36.0799C41.2597 30.7809 44.125 25.0589 44.125 18.9531H38.125ZM31.8961 31.8614L26.1305 37.5332L30.3382 41.8105L36.1039 36.1386L31.8961 31.8614ZM25.9822 37.69C23.2764 40.7648 22.1153 44.9905 22.0472 49.8958L28.0466 49.9792C28.1035 45.8845 29.0673 43.2664 30.4865 41.6538L25.9822 37.69ZM25.0469 46.9375H14.4062V52.9375H25.0469V46.9375ZM16.6094 64.5156C16.6094 63.3555 16.9447 62.6905 17.4358 62.2127L13.2517 57.9123C11.4303 59.6845 10.6094 61.9883 10.6094 64.5156H16.6094ZM17.4651 62.1838C17.9469 61.702 18.6846 61.3281 20.0312 61.3281V55.3281C17.4404 55.3281 15.0531 56.1105 13.2224 57.9412L17.4651 62.1838ZM20.0312 61.3281C21.4013 61.3281 22.1387 61.7118 22.6162 62.2022L26.915 58.0165C25.08 56.1319 22.6612 55.3281 20.0312 55.3281V61.3281ZM22.6443 62.2307C23.1849 62.7713 23.5 63.4517 23.5 64.5156H29.5C29.5 62.017 28.6589 59.76 26.8869 57.9881L22.6443 62.2307ZM23.5 64.5156C23.5 65.5094 23.2043 66.179 22.6623 66.7361L26.9627 70.9202C28.6707 69.1647 29.5 66.9594 29.5 64.5156H23.5ZM22.6623 66.7361C22.2486 67.1612 21.5213 67.5625 20.0312 67.5625V73.5625C22.6662 73.5625 25.1264 72.8075 26.9627 70.9202L22.6623 66.7361ZM20.0312 67.5625C18.5412 67.5625 17.8139 67.1612 17.4002 66.7361L13.0998 70.9202C14.9361 72.8075 17.3963 73.5625 20.0312 73.5625V67.5625ZM17.4294 66.7665C16.907 66.2142 16.6094 65.5346 16.6094 64.5156H10.6094C10.6094 66.9341 11.4055 69.1295 13.0706 70.8897L17.4294 66.7665Z" fill="url(#paint0_linear_947:3344)"/>
<defs>
<linearGradient id="paint0_linear_947:3344" x1="24" y1="-7" x2="24" y2="81" gradientUnits="userSpaceOnUse">
<stop stop-color="#118AB2"/>
<stop offset="0.473958" stop-color="#06D6A0" stop-opacity="0.432292"/>
<stop offset="1" stop-color="#EF476F"/>
</linearGradient>
</defs>
</svg>
